<svg width="278" height="20" viewBox="0 0 278 20" fill="none" xmlns="http://www.w3.org/2000/svg">
<path d="M235.47 18H222V17C222 13.29 225.02 10.26 228.74 10.26C232.46 10.26 235.48 13.28 235.48 17V18H235.47ZM224.11 16H233.37C232.9 13.87 231 12.26 228.74 12.26C226.48 12.26 224.57 13.87 224.11 16Z" fill="white"/>
<path d="M228.79 12C226.03 12 223.79 9.76 223.79 7C223.79 4.24 226.03 2 228.79 2C231.55 2 233.79 4.24 233.79 7C233.79 9.76 231.54 12 228.79 12ZM228.79 4C227.14 4 225.79 5.35 225.79 7C225.79 8.65 227.14 10 228.79 10C230.44 10 231.79 8.65 231.79 7C231.79 5.35 230.44 4 228.79 4Z" fill="white"/>
<rect x="246" y="1" width="32" height="18" rx="2" fill="#FF3F48"/>
<path d="M256.541 10.5898C256.1 11.0234 255.584 11.2402 254.994 11.2402C254.24 11.2402 253.637 10.9824 253.184 10.4668C252.73 9.94727 252.504 9.24805 252.504 8.36914C252.504 7.81055 252.625 7.29883 252.867 6.83398C253.113 6.36523 253.455 6.00195 253.893 5.74414C254.33 5.48242 254.822 5.35156 255.369 5.35156C255.932 5.35156 256.432 5.49219 256.869 5.77344C257.307 6.05469 257.646 6.45898 257.889 6.98633C258.131 7.51367 258.254 8.11719 258.258 8.79688V9.42383C258.258 10.8457 257.904 11.9629 257.197 12.7754C256.49 13.5879 255.488 14.0215 254.191 14.0762L253.775 14.082V12.6699L254.15 12.6641C255.623 12.5977 256.42 11.9062 256.541 10.5898ZM255.41 9.94531C255.684 9.94531 255.918 9.875 256.113 9.73438C256.312 9.59375 256.463 9.42383 256.564 9.22461V8.52734C256.564 7.95312 256.455 7.50781 256.236 7.19141C256.018 6.875 255.725 6.7168 255.357 6.7168C255.018 6.7168 254.738 6.87305 254.52 7.18555C254.301 7.49414 254.191 7.88281 254.191 8.35156C254.191 8.81641 254.297 9.19922 254.508 9.5C254.723 9.79688 255.023 9.94531 255.41 9.94531ZM263.432 10.5898C262.99 11.0234 262.475 11.2402 261.885 11.2402C261.131 11.2402 260.527 10.9824 260.074 10.4668C259.621 9.94727 259.395 9.24805 259.395 8.36914C259.395 7.81055 259.516 7.29883 259.758 6.83398C260.004 6.36523 260.346 6.00195 260.783 5.74414C261.221 5.48242 261.713 5.35156 262.26 5.35156C262.822 5.35156 263.322 5.49219 263.76 5.77344C264.197 6.05469 264.537 6.45898 264.779 6.98633C265.021 7.51367 265.145 8.11719 265.148 8.79688V9.42383C265.148 10.8457 264.795 11.9629 264.088 12.7754C263.381 13.5879 262.379 14.0215 261.082 14.0762L260.666 14.082V12.6699L261.041 12.6641C262.514 12.5977 263.311 11.9062 263.432 10.5898ZM262.301 9.94531C262.574 9.94531 262.809 9.875 263.004 9.73438C263.203 9.59375 263.354 9.42383 263.455 9.22461V8.52734C263.455 7.95312 263.346 7.50781 263.127 7.19141C262.908 6.875 262.615 6.7168 262.248 6.7168C261.908 6.7168 261.629 6.87305 261.41 7.18555C261.191 7.49414 261.082 7.88281 261.082 8.35156C261.082 8.81641 261.188 9.19922 261.398 9.5C261.613 9.79688 261.914 9.94531 262.301 9.94531ZM269.848 9.22461H271.963V10.7539H269.848V13.1445H268.236V10.7539H266.115V9.22461H268.236V6.93359H269.848V9.22461Z" fill="white"/>
<path d="M5.3125 7.98438L8.03906 3.625H9.80469L6.21094 9.26562L9.89062 15H8.10938L5.3125 10.5625L2.5 15H0.726562L4.41406 9.26562L0.8125 3.625H2.57031L5.3125 7.98438ZM18.5469 10.8672C18.5469 12.1536 18.2526 13.1901 17.6641 13.9766C17.0755 14.763 16.2786 15.1562 15.2734 15.1562C14.2474 15.1562 13.4401 14.8307 12.8516 14.1797V18.25H11.4062V6.54688H12.7266L12.7969 7.48438C13.3854 6.75521 14.2031 6.39062 15.25 6.39062C16.2656 6.39062 17.0677 6.77344 17.6562 7.53906C18.25 8.30469 18.5469 9.36979 18.5469 10.7344V10.8672ZM17.1016 10.7031C17.1016 9.75 16.8984 8.9974 16.4922 8.44531C16.0859 7.89323 15.5286 7.61719 14.8203 7.61719C13.9453 7.61719 13.2891 8.00521 12.8516 8.78125V12.8203C13.2839 13.5911 13.9453 13.9766 14.8359 13.9766C15.5286 13.9766 16.0781 13.7031 16.4844 13.1562C16.8958 12.6042 17.1016 11.7865 17.1016 10.7031ZM25.8594 6.54688H27.3047V15H25.8594V8.83594L21.9609 15H20.5156V6.54688H21.9609V12.7188L25.8594 6.54688ZM33.0156 13.9766C33.5312 13.9766 33.9818 13.8203 34.3672 13.5078C34.7526 13.1953 34.9661 12.8047 35.0078 12.3359H36.375C36.349 12.8203 36.1823 13.2812 35.875 13.7188C35.5677 14.1562 35.1562 14.5052 34.6406 14.7656C34.1302 15.026 33.5885 15.1562 33.0156 15.1562C31.8646 15.1562 30.9479 14.7734 30.2656 14.0078C29.5885 13.237 29.25 12.1849 29.25 10.8516V10.6094C29.25 9.78646 29.401 9.05469 29.7031 8.41406C30.0052 7.77344 30.4375 7.27604 31 6.92188C31.5677 6.56771 32.237 6.39062 33.0078 6.39062C33.9557 6.39062 34.7422 6.67448 35.3672 7.24219C35.9974 7.8099 36.3333 8.54688 36.375 9.45312H35.0078C34.9661 8.90625 34.7578 8.45833 34.3828 8.10938C34.013 7.75521 33.5547 7.57812 33.0078 7.57812C32.2734 7.57812 31.7031 7.84375 31.2969 8.375C30.8958 8.90104 30.6953 9.66406 30.6953 10.6641V10.9375C30.6953 11.9115 30.8958 12.6615 31.2969 13.1875C31.6979 13.7135 32.2708 13.9766 33.0156 13.9766ZM44.2812 7.71875H41.4453V15H40V7.71875H37.2188V6.54688H44.2812V7.71875ZM44.9766 10.6953C44.9766 9.86719 45.138 9.1224 45.4609 8.46094C45.7891 7.79948 46.2422 7.28906 46.8203 6.92969C47.4036 6.57031 48.0677 6.39062 48.8125 6.39062C49.9635 6.39062 50.8932 6.78906 51.6016 7.58594C52.3151 8.38281 52.6719 9.44271 52.6719 10.7656V10.8672C52.6719 11.6901 52.513 12.4297 52.1953 13.0859C51.8828 13.737 51.4323 14.2448 50.8438 14.6094C50.2604 14.974 49.5885 15.1562 48.8281 15.1562C47.6823 15.1562 46.7526 14.7578 46.0391 13.9609C45.3307 13.1641 44.9766 12.1094 44.9766 10.7969V10.6953ZM46.4297 10.8672C46.4297 11.8047 46.6458 12.5573 47.0781 13.125C47.5156 13.6927 48.099 13.9766 48.8281 13.9766C49.5625 13.9766 50.1458 13.6901 50.5781 13.1172C51.0104 12.5391 51.2266 11.7318 51.2266 10.6953C51.2266 9.76823 51.0052 9.01823 50.5625 8.44531C50.125 7.86719 49.5417 7.57812 48.8125 7.57812C48.099 7.57812 47.5234 7.86198 47.0859 8.42969C46.6484 8.9974 46.4297 9.8099 46.4297 10.8672ZM61.625 10.8672C61.625 12.1536 61.3307 13.1901 60.7422 13.9766C60.1536 14.763 59.3568 15.1562 58.3516 15.1562C57.3255 15.1562 56.5182 14.8307 55.9297 14.1797V18.25H54.4844V6.54688H55.8047L55.875 7.48438C56.4635 6.75521 57.2812 6.39062 58.3281 6.39062C59.3438 6.39062 60.1458 6.77344 60.7344 7.53906C61.3281 8.30469 61.625 9.36979 61.625 10.7344V10.8672ZM60.1797 10.7031C60.1797 9.75 59.9766 8.9974 59.5703 8.44531C59.1641 7.89323 58.6068 7.61719 57.8984 7.61719C57.0234 7.61719 56.3672 8.00521 55.9297 8.78125V12.8203C56.362 13.5911 57.0234 13.9766 57.9141 13.9766C58.6068 13.9766 59.1562 13.7031 59.5625 13.1562C59.974 12.6042 60.1797 11.7865 60.1797 10.7031ZM63.0859 10.6953C63.0859 9.86719 63.2474 9.1224 63.5703 8.46094C63.8984 7.79948 64.3516 7.28906 64.9297 6.92969C65.513 6.57031 66.1771 6.39062 66.9219 6.39062C68.0729 6.39062 69.0026 6.78906 69.7109 7.58594C70.4245 8.38281 70.7812 9.44271 70.7812 10.7656V10.8672C70.7812 11.6901 70.6224 12.4297 70.3047 13.0859C69.9922 13.737 69.5417 14.2448 68.9531 14.6094C68.3698 14.974 67.6979 15.1562 66.9375 15.1562C65.7917 15.1562 64.862 14.7578 64.1484 13.9609C63.4401 13.1641 63.0859 12.1094 63.0859 10.7969V10.6953ZM64.5391 10.8672C64.5391 11.8047 64.7552 12.5573 65.1875 13.125C65.625 13.6927 66.2083 13.9766 66.9375 13.9766C67.6719 13.9766 68.2552 13.6901 68.6875 13.1172C69.1198 12.5391 69.3359 11.7318 69.3359 10.6953C69.3359 9.76823 69.1146 9.01823 68.6719 8.44531C68.2344 7.86719 67.651 7.57812 66.9219 7.57812C66.2083 7.57812 65.6328 7.86198 65.1953 8.42969C64.7578 8.9974 64.5391 9.8099 64.5391 10.8672ZM79.1641 11.3281H78.1484V15H76.7031V11.3281H75.6875L73.3203 15H71.4922L74.5156 10.625L71.7812 6.54688H73.5312L75.7109 10.0469H76.7031V6.54688H78.1484V10.0469H79.1328L81.3281 6.54688H83.0781L80.3359 10.6328L83.3594 15H81.5312L79.1641 11.3281ZM84.6016 13.8203L85.1016 13.2031C85.6641 12.474 85.9844 11.3802 86.0625 9.92188L86.1953 6.54688H91.6406V13.8203H92.7266V17.4844H91.2812V15H85.3828V17.4844H83.9375L83.9453 13.8203H84.6016ZM86.3125 13.8203H90.1953V7.88281H87.5938L87.5078 9.89844C87.4193 11.5807 87.0208 12.888 86.3125 13.8203ZM97.8359 15.1562C96.6901 15.1562 95.7578 14.7812 95.0391 14.0312C94.3203 13.276 93.9609 12.2682 93.9609 11.0078V10.7422C93.9609 9.90365 94.1198 9.15625 94.4375 8.5C94.7604 7.83854 95.2083 7.32292 95.7812 6.95312C96.3594 6.57812 96.9844 6.39062 97.6562 6.39062C98.7552 6.39062 99.6094 6.7526 100.219 7.47656C100.828 8.20052 101.133 9.23698 101.133 10.5859V11.1875H95.4062C95.4271 12.0208 95.6693 12.6953 96.1328 13.2109C96.6016 13.7214 97.1953 13.9766 97.9141 13.9766C98.4245 13.9766 98.8568 13.8724 99.2109 13.6641C99.5651 13.4557 99.875 13.1797 100.141 12.8359L101.023 13.5234C100.315 14.612 99.2526 15.1562 97.8359 15.1562ZM97.6562 7.57812C97.0729 7.57812 96.5833 7.79167 96.1875 8.21875C95.7917 8.64062 95.5469 9.23438 95.4531 10H99.6875V9.89062C99.6458 9.15625 99.4479 8.58854 99.0938 8.1875C98.7396 7.78125 98.2604 7.57812 97.6562 7.57812ZM106.203 13.9766C106.719 13.9766 107.169 13.8203 107.555 13.5078C107.94 13.1953 108.154 12.8047 108.195 12.3359H109.562C109.536 12.8203 109.37 13.2812 109.062 13.7188C108.755 14.1562 108.344 14.5052 107.828 14.7656C107.318 15.026 106.776 15.1562 106.203 15.1562C105.052 15.1562 104.135 14.7734 103.453 14.0078C102.776 13.237 102.438 12.1849 102.438 10.8516V10.6094C102.438 9.78646 102.589 9.05469 102.891 8.41406C103.193 7.77344 103.625 7.27604 104.188 6.92188C104.755 6.56771 105.424 6.39062 106.195 6.39062C107.143 6.39062 107.93 6.67448 108.555 7.24219C109.185 7.8099 109.521 8.54688 109.562 9.45312H108.195C108.154 8.90625 107.945 8.45833 107.57 8.10938C107.201 7.75521 106.742 7.57812 106.195 7.57812C105.461 7.57812 104.891 7.84375 104.484 8.375C104.083 8.90104 103.883 9.66406 103.883 10.6641V10.9375C103.883 11.9115 104.083 12.6615 104.484 13.1875C104.885 13.7135 105.458 13.9766 106.203 13.9766ZM117.469 7.71875H114.633V15H113.188V7.71875H110.406V6.54688H117.469V7.71875ZM119.008 15V6.54688H122.305C123.43 6.54688 124.292 6.74479 124.891 7.14062C125.495 7.53125 125.797 8.10677 125.797 8.86719C125.797 9.25781 125.68 9.61198 125.445 9.92969C125.211 10.2422 124.865 10.4818 124.406 10.6484C124.917 10.7682 125.326 11.0026 125.633 11.3516C125.945 11.7005 126.102 12.1172 126.102 12.6016C126.102 13.3776 125.815 13.9714 125.242 14.3828C124.674 14.7943 123.87 15 122.828 15H119.008ZM120.453 11.2891V13.8359H122.844C123.448 13.8359 123.898 13.724 124.195 13.5C124.497 13.276 124.648 12.9609 124.648 12.5547C124.648 11.7109 124.029 11.2891 122.789 11.2891H120.453ZM120.453 10.1328H122.32C123.674 10.1328 124.352 9.73698 124.352 8.94531C124.352 8.15365 123.711 7.74479 122.43 7.71875H120.453V10.1328ZM131.523 15.1562C130.378 15.1562 129.445 14.7812 128.727 14.0312C128.008 13.276 127.648 12.2682 127.648 11.0078V10.7422C127.648 9.90365 127.807 9.15625 128.125 8.5C128.448 7.83854 128.896 7.32292 129.469 6.95312C130.047 6.57812 130.672 6.39062 131.344 6.39062C132.443 6.39062 133.297 6.7526 133.906 7.47656C134.516 8.20052 134.82 9.23698 134.82 10.5859V11.1875H129.094C129.115 12.0208 129.357 12.6953 129.82 13.2109C130.289 13.7214 130.883 13.9766 131.602 13.9766C132.112 13.9766 132.544 13.8724 132.898 13.6641C133.253 13.4557 133.562 13.1797 133.828 12.8359L134.711 13.5234C134.003 14.612 132.94 15.1562 131.523 15.1562ZM131.344 7.57812C130.76 7.57812 130.271 7.79167 129.875 8.21875C129.479 8.64062 129.234 9.23438 129.141 10H133.375V9.89062C133.333 9.15625 133.135 8.58854 132.781 8.1875C132.427 7.78125 131.948 7.57812 131.344 7.57812ZM143.406 15H141.961V11.3906H138.078V15H136.625V6.54688H138.078V10.2109H141.961V6.54688H143.406V15ZM149.125 13.9766C149.641 13.9766 150.091 13.8203 150.477 13.5078C150.862 13.1953 151.076 12.8047 151.117 12.3359H152.484C152.458 12.8203 152.292 13.2812 151.984 13.7188C151.677 14.1562 151.266 14.5052 150.75 14.7656C150.24 15.026 149.698 15.1562 149.125 15.1562C147.974 15.1562 147.057 14.7734 146.375 14.0078C145.698 13.237 145.359 12.1849 145.359 10.8516V10.6094C145.359 9.78646 145.51 9.05469 145.812 8.41406C146.115 7.77344 146.547 7.27604 147.109 6.92188C147.677 6.56771 148.346 6.39062 149.117 6.39062C150.065 6.39062 150.852 6.67448 151.477 7.24219C152.107 7.8099 152.443 8.54688 152.484 9.45312H151.117C151.076 8.90625 150.867 8.45833 150.492 8.10938C150.122 7.75521 149.664 7.57812 149.117 7.57812C148.383 7.57812 147.812 7.84375 147.406 8.375C147.005 8.90104 146.805 9.66406 146.805 10.6641V10.9375C146.805 11.9115 147.005 12.6615 147.406 13.1875C147.807 13.7135 148.38 13.9766 149.125 13.9766ZM156.742 11.3984H155.688V15H154.234V6.54688H155.688V10.125H156.633L159.477 6.54688H161.227L157.883 10.6094L161.508 15H159.672L156.742 11.3984ZM168.219 6.54688H169.664V15H168.219V8.83594L164.32 15H162.875V6.54688H164.32V12.7188L168.219 6.54688ZM177.453 6.54688H178.898V15H177.453V8.83594L173.555 15H172.109V6.54688H173.555V12.7188L177.453 6.54688ZM177.844 3.46875C177.844 4.09896 177.628 4.60677 177.195 4.99219C176.768 5.3724 176.206 5.5625 175.508 5.5625C174.81 5.5625 174.245 5.36979 173.812 4.98438C173.38 4.59896 173.164 4.09375 173.164 3.46875H174.344C174.344 3.83333 174.443 4.11979 174.641 4.32812C174.839 4.53125 175.128 4.63281 175.508 4.63281C175.872 4.63281 176.156 4.53125 176.359 4.32812C176.568 4.125 176.672 3.83854 176.672 3.46875H177.844ZM188.125 15H186.68V11.3906H182.797V15H181.344V6.54688H182.797V10.2109H186.68V6.54688H188.125V15ZM195.672 15C195.589 14.8333 195.521 14.5365 195.469 14.1094C194.797 14.8073 193.995 15.1562 193.062 15.1562C192.229 15.1562 191.544 14.9219 191.008 14.4531C190.477 13.9792 190.211 13.3802 190.211 12.6562C190.211 11.776 190.544 11.0938 191.211 10.6094C191.883 10.1198 192.826 9.875 194.039 9.875H195.445V9.21094C195.445 8.70573 195.294 8.30469 194.992 8.00781C194.69 7.70573 194.245 7.55469 193.656 7.55469C193.141 7.55469 192.708 7.6849 192.359 7.94531C192.01 8.20573 191.836 8.52083 191.836 8.89062H190.383C190.383 8.46875 190.531 8.0625 190.828 7.67188C191.13 7.27604 191.536 6.96354 192.047 6.73438C192.562 6.50521 193.128 6.39062 193.742 6.39062C194.716 6.39062 195.479 6.63542 196.031 7.125C196.583 7.60938 196.87 8.27865 196.891 9.13281V13.0234C196.891 13.7995 196.99 14.4167 197.188 14.875V15H195.672ZM193.273 13.8984C193.727 13.8984 194.156 13.7812 194.562 13.5469C194.969 13.3125 195.263 13.0078 195.445 12.6328V10.8984H194.312C192.542 10.8984 191.656 11.4167 191.656 12.4531C191.656 12.9062 191.807 13.2604 192.109 13.5156C192.411 13.7708 192.799 13.8984 193.273 13.8984ZM199.188 14.2422C199.188 13.9922 199.26 13.7839 199.406 13.6172C199.557 13.4505 199.781 13.3672 200.078 13.3672C200.375 13.3672 200.599 13.4505 200.75 13.6172C200.906 13.7839 200.984 13.9922 200.984 14.2422C200.984 14.4818 200.906 14.6823 200.75 14.8438C200.599 15.0052 200.375 15.0859 200.078 15.0859C199.781 15.0859 199.557 15.0052 199.406 14.8438C199.26 14.6823 199.188 14.4818 199.188 14.2422ZM203.406 14.2422C203.406 13.9922 203.479 13.7839 203.625 13.6172C203.776 13.4505 204 13.3672 204.297 13.3672C204.594 13.3672 204.818 13.4505 204.969 13.6172C205.125 13.7839 205.203 13.9922 205.203 14.2422C205.203 14.4818 205.125 14.6823 204.969 14.8438C204.818 15.0052 204.594 15.0859 204.297 15.0859C204 15.0859 203.776 15.0052 203.625 14.8438C203.479 14.6823 203.406 14.4818 203.406 14.2422ZM207.625 14.2422C207.625 13.9922 207.698 13.7839 207.844 13.6172C207.995 13.4505 208.219 13.3672 208.516 13.3672C208.812 13.3672 209.036 13.4505 209.188 13.6172C209.344 13.7839 209.422 13.9922 209.422 14.2422C209.422 14.4818 209.344 14.6823 209.188 14.8438C209.036 15.0052 208.812 15.0859 208.516 15.0859C208.219 15.0859 207.995 15.0052 207.844 14.8438C207.698 14.6823 207.625 14.4818 207.625 14.2422Z" fill="#CBCBCB"/>
<path d="M0 19L211 19" stroke="#CBCBCB" stroke-dasharray="3 2"/>
</svg>
