<svg width="24" height="24" viewBox="0 0 24 24" fill="none" xmlns="http://www.w3.org/2000/svg">
<path d="M19.5 10C19.5 11.1251 19.0465 12.3797 18.3159 13.6582C17.5892 14.9298 16.6134 16.1823 15.6263 17.2928C14.6408 18.4016 13.6536 19.358 12.9121 20.0377C12.5417 20.3772 12.2334 20.647 12.0184 20.8313C12.0122 20.8366 12.006 20.8419 12 20.847C11.994 20.8419 11.9878 20.8366 11.9816 20.8313C11.7666 20.647 11.4583 20.3772 11.0879 20.0377C10.3464 19.358 9.35925 18.4016 8.3737 17.2928C7.38662 16.1823 6.41077 14.9298 5.68412 13.6582C4.95354 12.3797 4.5 11.1251 4.5 10C4.5 5.85786 7.85786 2.5 12 2.5C16.1421 2.5 19.5 5.85786 19.5 10Z" stroke="#353535"/>
<circle cx="12" cy="10" r="3.5" stroke="#353535"/>
</svg>
